<?xml version="1.0"?>
<svg version="1.1" xmlns="http://www.w3.org/2000/svg" width="400px" height="200px" style="border: dashed 2px #aaa"><path fill="#121212" d="M60.94,154l0-5.67l-16.02,0q-11.16,0-18.72-7.56t-7.56-18.72q0-10.26,7.56-17.64t18.72-7.38l16.02,0l0-5.85l-16.02,0q-13.59,0-22.77,9q-9.18,8.91-9.18,21.87q0,13.77,9.18,22.77q9,9.18,22.77,9.18l16.02,0z M84.0556,148.96q0-2.88-1.755-4.635t-4.635-1.755q-1.98,0-3.51,1.8t-1.53,4.59q0,1.89,1.575,3.465t3.465,1.575q2.79,0,4.59-1.53t1.8-3.51z M111.7612,97.57l33.93,0l0-6.84l-33.93,0q-6.66,0-11.16,5.22q-4.59,5.31-4.59,12.87q0,6.84,4.59,11.88q4.5,5.13,11.16,5.13l9,0l9.18,0q4.05,0,7.2,3.42q2.97,3.6,2.97,7.83q0,5.04-2.925,8.19t-7.245,3.15l-33.93,0l0,5.58l33.93,0q6.75,0,11.25-4.68t4.5-12.24q0-6.84-4.5-11.88q-4.59-5.04-11.25-5.04l-9.18,0l-9,0q-4.14,0-7.11-3.6q-3.06-3.33-3.06-7.74q0-5.04,2.925-8.145t7.245-3.105z M206.5168,91l-5.58,0l0,6.66q0,8.28-5.76,13.86q-5.67,5.4-13.5,5.4q-8.37,0-13.77-5.4t-5.4-13.86l0-6.66l-5.58,0l0,6.66q0,10.08,6.12,17.1q6.03,7.11,15.3,7.74l0,31.59l5.67,0l0-31.59q9.45-0.72,15.93-7.74q6.57-7.02,6.57-17.1l0-6.66z M219.3724,154.18l44.01,0l0-4.59l-38.43,0l0-58.59l-5.58,0l0,63.18z M321.508,90.64l-6.84,0l-19.17,47.61l-18.09-47.61l-5.67,0l23.76,63.36z M339.2236,136.72q0-4.32,3.06-7.83q3.06-3.69,7.38-3.69l1.17,0l16.83,0l0-5.58l-16.83,0l-1.17,0q-4.59-0.9-7.515-3.96t-2.925-7.29q0-5.31,3.105-8.415t8.505-3.105l30.6,0l0-5.67l-30.6,0q-6.93,0-12.06,5.13q-5.13,4.95-5.13,12.06q0,4.5,1.71,8.19t5.04,5.31q-3.33,2.43-5.04,6.39t-1.71,8.46q0,7.02,5.13,11.97q5.22,5.22,12.06,5.22l30.6,0l0-5.94l-30.6,0q-5.4,0-8.505-3.06t-3.105-8.19z"/><path fill="#" d=""/></svg>
