<?xml version="1.0" encoding="UTF-8"?>
<svg clip-rule="evenodd" fill-rule="evenodd" stroke-linecap="round" stroke-linejoin="round" stroke-miterlimit="2" version="1.1" viewBox="0 0 64 64" xml:space="preserve" xmlns="http://www.w3.org/2000/svg" xmlns:cc="http://creativecommons.org/ns#" xmlns:dc="http://purl.org/dc/elements/1.1/" xmlns:rdf="http://www.w3.org/1999/02/22-rdf-syntax-ns#">
  <metadata>
    <rdf:RDF>
      <cc:Work rdf:about="">
        <dc:format>image/svg+xml</dc:format>

        <dc:type rdf:resource="http://purl.org/dc/dcmitype/StillImage"/>

      </cc:Work>

    </rdf:RDF>

  </metadata>

  

  
  <path d="m55.579 31.579c0.693 0.693 0.781 1.787 0.208 2.583-0.396 0.549-0.857 1.189-1.284 1.781-0.342 0.476-0.877 0.777-1.461 0.824-0.585 0.048-1.161-0.164-1.575-0.579-4.986-4.985-19.467-19.466-19.467-19.466s-14.481 14.481-19.467 19.466c-0.414 0.415-0.99 0.627-1.575 0.579-0.584-0.047-1.119-0.348-1.461-0.824-0.427-0.592-0.888-1.232-1.284-1.781-0.573-0.796-0.485-1.89 0.208-2.583l23.579-23.579 23.579 23.579z" fill="none" stroke="#222a33" stroke-width="2px"/>

  <path d="m13.977 34.745 18.023-18.023 18.023 18.023v20.002c0 0.598-0.237 1.171-0.66 1.593-0.422 0.423-0.995 0.66-1.593 0.66h-31.54c-0.598 0-1.171-0.237-1.593-0.66-0.423-0.422-0.66-0.995-0.66-1.593v-20.002z" fill="none" stroke="#222a33" stroke-width="2px"/>

  <path d="m20.736 19.264-7.885 7.885v-11.827h7.885v3.942z" fill="none" stroke="#222a33" stroke-width="2px"/>

  <path d="m37 44.5c0-0.398-0.158-0.779-0.439-1.061-0.282-0.281-0.663-0.439-1.061-0.439h-7c-0.398 0-0.779 0.158-1.061 0.439-0.281 0.282-0.439 0.663-0.439 1.061v12.5h10v-12.5z" fill="none" stroke="#222a33" stroke-width="2px"/>

</svg>
